<svg xmlns="http://www.w3.org/2000/svg" viewBox="0 0 217.86 201.32">
    <defs>
        <style>.cls-1{fill:none;stroke:#000;stroke-miterlimit:10;stroke-width:18px;}</style>
    </defs>
    <circle cx="77.94" cy="105.21" r="22.38"/>
    <circle cx="140.99" cy="105.74" r="22.38"/>
    <polygon class="cls-1" points="208.86 192.32 9 192.32 9 67.92 51.43 43.7 108.93 10.45 163.37 43.26 208.86 69.9 208.86 192.32"/>
    <path d="M1032.56,593.44s1.44-20.92-24.66-30.83a34.78,34.78,0,0,1-32.8,0s-7.8,1.21-15.35,9h0c-7.55-7.81-15.35-9-15.35-9a34.81,34.81,0,0,1-32.8,0c-26.1,9.9-24.66,30.82-24.66,30.82Z" transform="translate(-850.59 -429.73)"/>
</svg>