<?xml version="1.0" standalone="no"?>
<!DOCTYPE svg PUBLIC "-//W3C//DTD SVG 20010904//EN"
 "http://www.w3.org/TR/2001/REC-SVG-20010904/DTD/svg10.dtd">
<svg version="1.0" xmlns="http://www.w3.org/2000/svg"
 width="500.000000pt" height="500.000000pt" viewBox="0 0 500.000000 500.000000"
 preserveAspectRatio="xMidYMid meet">
<metadata>
Created by potrace 1.14, written by Peter Selinger 2001-2017
</metadata>
<g transform="translate(0.000000,500.000000) scale(0.100000,-0.100000)"
fill="#000000" stroke="none">
<path d="M2453 4967 c-17 -18 -51 -50 -75 -72 -24 -22 -88 -80 -143 -130 -54
-49 -108 -99 -120 -110 -41 -36 -197 -179 -234 -214 -45 -42 -194 -178 -219
-200 -29 -25 -177 -160 -220 -200 -75 -69 -198 -179 -282 -250 -47 -40 -132
-119 -190 -175 -58 -56 -145 -138 -194 -181 -49 -44 -108 -98 -131 -120 -23
-22 -75 -69 -114 -105 -40 -36 -94 -85 -119 -108 -26 -24 -69 -63 -96 -85 -69
-59 -78 -69 -71 -75 3 -4 66 -7 138 -7 111 0 132 -2 130 -15 -1 -8 -15 -53
-32 -100 -31 -89 -76 -256 -86 -325 -3 -23 -7 -50 -9 -60 -8 -45 -19 -216 -19
-300 0 -168 26 -414 49 -475 3 -8 8 -28 11 -45 9 -56 80 -260 126 -362 60
-133 157 -295 247 -413 99 -129 292 -318 430 -421 116 -85 214 -149 230 -149
5 0 10 -3 12 -7 4 -10 177 -95 238 -118 25 -9 54 -21 65 -25 54 -23 233 -70
325 -86 14 -3 31 -7 38 -9 6 -2 12 0 12 5 0 6 -3 10 -7 11 -39 4 -163 37 -254
68 -245 82 -471 225 -656 413 -50 51 -102 107 -116 123 -38 48 -127 174 -127
182 0 3 -6 14 -14 22 -23 27 -100 181 -143 286 -41 101 -75 229 -98 365 -2 14
-7 43 -11 65 -9 49 -10 362 -1 430 6 45 18 110 31 170 55 255 182 520 352 731
112 141 314 319 464 411 57 35 196 106 210 108 3 0 11 4 17 8 48 30 330 111
428 122 17 2 57 7 90 11 76 10 292 10 370 0 100 -12 117 -15 194 -31 110 -23
272 -80 396 -140 397 -191 725 -546 883 -955 30 -75 60 -174 69 -219 2 -14 6
-28 9 -33 3 -4 7 -22 9 -40 3 -18 7 -44 10 -58 3 -14 7 -45 10 -70 3 -25 8
-65 10 -90 11 -93 5 -303 -11 -385 -2 -10 -6 -37 -10 -60 -8 -55 -57 -237 -83
-310 -108 -297 -380 -663 -596 -804 -22 -14 -42 -28 -45 -31 -10 -12 -66 -49
-120 -79 -146 -83 -388 -176 -553 -212 -35 -7 -53 -15 -45 -20 6 -4 17 -5 23
-1 5 4 15 7 20 7 8 1 80 14 105 20 3 1 21 5 40 9 62 13 296 95 362 126 114 55
353 191 368 209 3 4 34 29 70 56 36 28 74 57 84 65 11 8 70 65 131 125 266
265 442 574 545 960 49 182 67 336 64 552 -3 266 -24 401 -100 632 -24 74 -44
140 -44 146 0 8 38 11 129 9 71 -1 134 2 140 5 6 4 -28 41 -82 88 -50 45 -112
101 -137 125 -47 44 -208 192 -246 225 -51 44 -203 184 -269 248 -64 62 -131
123 -215 195 -49 42 -156 139 -206 186 -28 27 -69 65 -90 84 -77 69 -380 345
-429 391 -27 26 -62 58 -77 72 -128 114 -186 165 -207 186 -14 13 -64 58 -110
100 -47 42 -92 83 -101 91 -35 33 -82 70 -88 69 -4 0 -21 -15 -39 -32z"/>
<path d="M2340 2589 c-90 -20 -225 -81 -275 -124 -157 -136 -226 -245 -260
-407 -8 -38 -15 -81 -15 -96 l0 -27 337 0 338 0 0 315 c0 173 -1 325 -4 338
-4 26 -9 26 -121 1z"/>
<path d="M2537 2603 c-3 -7 -2 -649 2 -663 0 -3 152 -5 336 -5 l336 -1 -5 52
c-6 69 -49 194 -92 272 -46 82 -140 182 -222 235 -36 23 -68 42 -71 43 -3 0
-24 8 -46 18 -39 17 -192 56 -220 56 -8 0 -16 -3 -18 -7z"/>
<path d="M1794 1851 c-9 -9 -3 -73 12 -133 63 -246 265 -456 494 -511 85 -20
160 -30 161 -20 5 39 2 648 -3 656 -5 9 -98 12 -333 12 -180 0 -329 -2 -331
-4z"/>
<path d="M2541 1840 c-6 -12 -8 -569 -2 -643 1 -16 7 -18 44 -12 176 30 320
97 417 195 82 82 167 232 186 327 10 48 11 52 13 56 7 8 10 87 3 88 -4 0 -152
2 -330 3 -283 1 -325 0 -331 -14z"/>
<path d="M2170 30 c0 -5 5 -10 11 -10 5 0 7 5 4 10 -3 6 -8 10 -11 10 -2 0 -4
-4 -4 -10z"/>
<path d="M2770 20 c0 -5 5 -10 10 -10 6 0 10 5 10 10 0 6 -4 10 -10 10 -5 0
-10 -4 -10 -10z"/>
<path d="M2706 8 c7 -10 24 -10 24 0 0 5 -7 9 -15 9 -8 0 -12 -4 -9 -9z"/>
</g>
</svg>
